# xmcd
#
# Track frame offsets:
#	150
#	16107
#	28970
#	42884
#	59950
#	79691
#	96511
#	114986
#	132715
#	149680
#	163821
#	179881
#	196216
#	212627
#	226920
#	240411
#	259307
#	274919
#	290593
#	307951
#	320984
#
# Disc length: 4456 seconds
#
# Revision: 1
# Processed by: cddbd v1.5.2PL0 Copyright (c) Steve Scherf et al.
# Submitted via: dBpowerAMP V4.0
#
DISCID=4e116615
DTITLE=Various Artist - Hott Country Volume 250 Can
DYEAR=2016
DGENRE=Country
TTITLE0=Dierks Bentley - Black
TTITLE1=Miranda Lambert - We Should Be Friends
TTITLE2=Florida Georgia Line ft. Backstreet Boys - God, Your Mama, And Me
TTITLE3=William Michael Morgan - Missing
TTITLE4=Little Big Town - Better Man
TTITLE5=Luke Combs - Hurricane
TTITLE6=Dean Brody - Time
TTITLE7=Billy Currington - Do I Make You Wanna
TTITLE8=Brett Young - In Case You Didn't Know
TTITLE9=James Barker Band - Just Sayin'
TTITLE10=Locash - Ring On Every Finger
TTITLE11=Brandy Clark - Love Can Go To Hell
TTITLE12=Drake White - Makin' Me Look Good Again
TTITLE13=Tim Hicks - Slow Burn
TTITLE14=Ryan Kinder - Close
TTITLE15=Meghan Patrick ft. Joe Nichols - Still Loving You
TTITLE16=Gord Bamford - Fall In Love If You Want To
TTITLE17=JoJo Mason - Made For You
TTITLE18=Kacey Musgraves ft. Leon Bridges - Present Without A Bow
TTITLE19=Brett Eldredge ft. Meghan Trainor - Baby, It's Cold Outside
TTITLE20=Leah Daniels - We Got Snow
EXTD=
EXTT0=
EXTT1=
EXTT2=
EXTT3=
EXTT4=
EXTT5=
EXTT6=
EXTT7=
EXTT8=
EXTT9=
EXTT10=
EXTT11=
EXTT12=
EXTT13=
EXTT14=
EXTT15=
EXTT16=
EXTT17=
EXTT18=
EXTT19=
EXTT20=
PLAYORDER=
